<?xml version="1.0" standalone="no"?>
<!DOCTYPE svg PUBLIC "-//W3C//DTD SVG 20010904//EN"
 "http://www.w3.org/TR/2001/REC-SVG-20010904/DTD/svg10.dtd">
<svg version="1.0" xmlns="http://www.w3.org/2000/svg"
 width="2560.000000pt" height="801.000000pt" viewBox="0 0 2560.000000 801.000000"
 preserveAspectRatio="xMidYMid meet">

<g transform="translate(0.000000,801.000000) scale(0.100000,-0.100000)"
fill="#000000" stroke="none">
<path d="M3645 7073 c-417 -48 -726 -143 -1050 -320 -638 -349 -1140 -953
-1375 -1653 -64 -191 -117 -414 -140 -585 -28 -217 -30 -604 -4 -795 68 -510
244 -977 512 -1365 196 -282 406 -503 662 -696 228 -172 491 -313 753 -403
311 -107 626 -154 957 -142 584 20 1120 223 1600 605 125 100 335 310 438 440
575 720 796 1646 611 2565 -166 825 -673 1549 -1384 1978 -109 66 -318 165
-458 217 -294 110 -590 162 -910 160 -100 -1 -195 -4 -212 -6z m570 -57 c380
-57 701 -175 1035 -381 376 -232 722 -586 958 -981 160 -269 314 -675 362
-958 5 -28 16 -89 24 -136 62 -348 44 -789 -49 -1187 -26 -111 -124 -413 -134
-413 -3 0 -71 37 -151 81 -80 45 -197 109 -260 144 -63 34 -162 89 -220 122
-193 110 -289 155 -338 159 l-47 4 50 -14 c48 -12 137 -58 390 -201 66 -37
140 -79 165 -93 54 -30 298 -165 358 -199 23 -13 42 -28 42 -34 0 -9 -17 -47
-25 -57 -2 -2 -27 12 -56 31 -30 19 -97 58 -149 88 -52 30 -103 58 -112 64
-229 134 -288 165 -316 165 -30 0 -229 -75 -477 -179 -65 -28 -141 -58 -167
-67 -47 -15 -88 -53 -88 -81 0 -24 87 -106 102 -97 7 4 10 3 5 -1 -4 -5 5 -15
20 -22 16 -7 37 -18 48 -25 34 -22 118 -74 165 -102 25 -15 70 -45 100 -67 30
-23 73 -50 95 -61 71 -35 115 -64 108 -72 -4 -4 3 -9 15 -13 12 -3 22 -10 22
-15 0 -5 10 -6 21 -3 13 4 19 3 16 -2 -4 -6 6 -19 21 -30 43 -32 222 -113 249
-113 l24 0 -22 -33 c-82 -117 -345 -389 -459 -474 -30 -23 -118 -68 -195 -101
-139 -59 -197 -83 -575 -242 -107 -45 -220 -93 -250 -106 -152 -65 -346 -135
-402 -144 -93 -15 -415 -12 -551 5 -136 17 -295 48 -352 69 -22 8 -36 15 -31
16 4 0 -16 16 -45 37 -30 20 -132 90 -227 157 -94 67 -228 159 -296 206 -68
47 -181 127 -252 177 -71 51 -198 141 -283 200 -85 60 -163 120 -173 134 -28
37 -16 64 35 83 389 142 355 135 509 106 194 -36 378 -77 443 -99 33 -11 114
-38 180 -61 135 -46 244 -61 294 -40 32 13 47 7 99 -35 132 -108 745 -545 764
-545 10 0 37 11 59 25 34 22 82 46 99 49 3 1 18 14 34 29 16 15 33 27 38 27 6
0 23 9 40 21 16 12 31 19 33 17 3 -3 -23 -21 -57 -41 -35 -20 -60 -37 -57 -37
17 0 69 23 69 31 0 5 8 9 18 9 10 0 26 6 37 13 11 7 40 19 65 27 25 7 65 24
90 37 25 13 49 23 53 23 5 0 41 15 81 34 39 19 94 37 121 41 27 5 73 18 102
31 30 13 59 24 66 24 7 0 23 9 35 20 12 11 26 20 32 20 6 0 50 18 98 41 160
75 308 136 437 179 44 15 80 31 80 36 0 29 -86 101 -228 188 -128 79 -98 46
39 -42 69 -45 122 -86 119 -92 -3 -5 3 -10 13 -10 19 0 37 -25 27 -39 -2 -4
-37 -13 -77 -20 -100 -17 -350 -95 -424 -131 -33 -17 -85 -53 -116 -80 -75
-67 -121 -68 -82 -2 l16 27 -22 -24 c-19 -22 -24 -23 -42 -12 -20 12 -20 12
-4 -10 17 -24 21 -58 9 -61 -5 0 -19 -2 -33 -4 -140 -14 -221 -32 -300 -66
-83 -37 -95 -43 -185 -97 -297 -178 -295 -177 -295 -146 0 14 -5 17 -40 19 -8
1 -15 7 -15 15 0 8 -6 16 -14 19 -9 3 -11 0 -6 -8 6 -9 3 -9 -13 -1 -12 6 -24
17 -28 24 -5 8 -2 7 9 -2 10 -8 20 -12 22 -9 5 5 -173 143 -254 198 -20 14
-67 46 -103 73 -73 52 -91 59 -62 25 l19 -23 -22 19 c-13 10 -20 22 -18 27 3
4 -9 18 -27 30 -18 13 -48 35 -66 51 -37 31 -62 38 -41 11 13 -16 12 -17 -3
-4 -10 7 -15 18 -12 23 3 5 -2 16 -12 23 -29 22 -39 18 -18 -7 l19 -22 -30 22
c-57 41 -80 62 -69 62 6 0 19 -9 29 -20 10 -11 23 -20 29 -20 6 0 -5 14 -24
30 -20 17 -29 30 -21 30 11 0 12 3 4 11 -14 14 11 44 28 34 6 -4 24 6 40 21
28 26 31 27 62 15 78 -32 168 -47 270 -44 56 1 117 -2 136 -7 51 -14 87 -2
138 46 25 24 62 49 82 55 20 7 42 21 50 31 13 19 13 19 27 -1 17 -24 73 -65
80 -59 8 8 -8 38 -17 33 -9 -6 -72 55 -64 63 3 3 19 -8 37 -24 24 -23 29 -25
23 -9 -4 11 -11 34 -15 50 -4 17 -8 24 -9 18 -1 -7 -12 -13 -25 -13 -17 0 -36
15 -66 52 -28 35 -63 64 -111 90 -77 42 -96 36 -21 -7 78 -46 111 -74 132
-115 28 -55 26 -78 -7 -86 -18 -5 -28 -3 -31 6 -3 7 -12 19 -21 27 -24 22
-133 84 -138 79 -5 -5 20 -22 86 -58 55 -30 70 -50 52 -72 -17 -20 -59 -20
-131 -1 -46 12 -52 12 -37 0 11 -7 36 -17 58 -20 46 -8 57 -21 35 -43 -14 -14
-43 -16 -200 -15 -104 1 -203 7 -227 13 -36 10 -154 63 -168 76 -5 4 37 140
61 196 23 53 26 55 178 91 150 35 224 57 234 68 17 16 62 10 109 -17 25 -14
70 -33 99 -44 50 -17 54 -21 78 -78 26 -61 47 -93 58 -89 4 1 49 -27 100 -61
50 -34 92 -59 92 -55 0 7 -123 95 -185 133 -14 8 -25 20 -25 25 0 15 106 106
171 148 73 47 179 83 329 114 69 13 129 27 133 30 11 7 168 -90 520 -321 15
-10 27 -14 27 -8 0 10 -74 58 -393 260 -110 69 -137 83 -162 78 -308 -53 -446
-108 -583 -231 l-49 -44 -22 46 c-17 35 -31 48 -61 60 -42 17 -53 33 -22 33
10 0 34 8 55 19 30 15 55 18 139 16 124 -4 138 1 246 89 46 36 85 66 88 66 4
0 -4 -9 -17 -20 -45 -37 -3 -20 52 21 30 22 85 61 122 86 91 61 232 195 246
235 7 18 21 50 32 71 11 21 23 60 26 86 5 48 6 49 52 62 49 14 131 47 131 54
0 4 -75 -17 -141 -40 -44 -16 -58 -10 -59 23 0 6 -38 90 -84 185 -46 94 -118
253 -161 352 -42 99 -94 217 -115 262 -46 97 -60 144 -60 202 0 36 -5 49 -33
75 -31 29 -34 38 -56 170 -12 76 -32 164 -43 195 -25 68 -90 135 -149 152 -22
7 -43 19 -46 26 -3 7 3 39 13 70 l18 58 12 -58 c6 -32 14 -60 17 -63 2 -3 14
26 26 63 30 99 33 102 69 62 17 -19 33 -32 35 -29 3 3 1 28 -4 55 -9 45 -4
127 8 148 3 5 22 -7 42 -25 35 -33 91 -73 91 -64 0 2 -7 23 -16 47 -20 56 -44
180 -44 226 l0 35 34 -21 c33 -20 139 -61 159 -61 5 0 -7 20 -27 45 -42 51
-78 128 -101 213 -8 33 -15 63 -15 66 0 3 30 6 68 7 75 1 114 9 119 25 2 6
-10 14 -27 17 -44 9 -109 74 -163 166 -26 44 -52 83 -58 86 -23 15 -5 33 44
44 28 7 77 25 107 41 l55 29 -35 -1 c-20 -1 -59 7 -88 16 -28 10 -56 15 -61
12 -5 -3 -23 1 -40 10 -18 9 -39 13 -47 10 -10 -4 -42 17 -90 59 -41 36 -70
65 -65 65 15 0 103 -48 126 -69 23 -21 101 -71 111 -71 8 0 -44 40 -130 100
-36 25 -65 48 -66 52 0 4 17 16 38 27 42 21 132 98 132 112 0 5 -11 2 -25 -7
-43 -28 -206 -11 -303 33 -19 8 -73 24 -120 35 -48 12 -91 25 -96 29 -4 4 3
19 16 33 33 36 108 176 82 155 -64 -55 -190 -95 -328 -105 -111 -8 -189 -33
-233 -76 -18 -18 -33 -27 -33 -22 0 32 35 136 62 182 l31 55 -32 -19 c-62 -37
-141 -105 -167 -144 -15 -22 -29 -59 -31 -83 l-5 -43 -52 13 c-82 21 -182 -4
-259 -66 l-39 -30 86 6 c49 3 86 2 86 -3 0 -5 -18 -19 -39 -31 -22 -13 -74
-61 -117 -107 -43 -47 -81 -83 -86 -80 -4 3 -5 -1 -2 -9 8 -21 -70 -79 -129
-97 -28 -9 -52 -21 -54 -27 -3 -7 25 -21 66 -34 39 -13 71 -27 71 -31 0 -5
-15 -39 -34 -76 -45 -90 -99 -138 -163 -147 -75 -10 -76 -11 -59 -42 23 -46
150 -161 200 -183 25 -10 46 -25 46 -32 0 -17 -48 -88 -75 -110 -11 -10 -30
-21 -42 -24 -13 -3 -23 -9 -23 -13 0 -21 31 -31 97 -31 89 0 93 -5 68 -96 -10
-36 -15 -68 -11 -71 3 -4 27 8 52 26 26 18 47 31 48 29 43 -61 47 -77 34 -140
-7 -35 -15 -65 -19 -68 -4 -3 -8 -14 -10 -25 -3 -11 -18 -26 -34 -34 -17 -7
-55 -37 -85 -66 -46 -44 -140 -115 -152 -115 -2 0 -2 18 0 41 3 30 0 44 -14
55 -23 17 -210 121 -359 199 -60 32 -171 90 -245 130 -74 40 -231 120 -347
179 -197 98 -217 106 -270 106 -32 0 -75 -4 -95 -9 l-37 -9 24 47 c31 62 181
284 252 375 31 39 87 103 124 141 37 39 76 79 86 90 92 104 358 320 480 390
10 6 45 27 77 48 32 21 89 52 125 69 36 17 75 35 86 41 81 41 199 92 265 113
25 8 54 19 65 24 103 46 377 102 610 124 85 8 445 -4 540 -18z m-45 -236 c0
-5 -2 -10 -4 -10 -3 0 -8 5 -11 10 -3 6 -1 10 4 10 6 0 11 -4 11 -10z m485
-654 c41 -60 73 -112 70 -114 -2 -2 -18 3 -36 12 -40 20 -53 20 -45 1 7 -18
-8 -20 -22 -2 -12 15 -72 125 -72 133 0 3 9 2 20 -1 29 -9 27 32 -5 75 -14 19
-25 36 -25 38 0 16 51 -47 115 -142z m-1490 82 c-1 -24 -3 -46 -4 -49 -1 -7
-48 -29 -61 -29 -7 0 59 119 67 120 1 0 0 -19 -2 -42z m1620 23 c29 -7 28 -7
-20 -20 -27 -7 -58 -15 -67 -18 -10 -2 -18 -2 -18 1 0 3 19 10 42 17 l42 11
-24 15 c-17 9 -18 12 -5 7 11 -3 34 -9 50 -13z m-1583 -63 c-7 -7 -12 -8 -12
-2 0 14 12 26 19 19 2 -3 -1 -11 -7 -17z m-31 -65 c-10 -17 -10 -16 -11 3 0
23 13 41 18 25 2 -6 -1 -18 -7 -28z m1349 -95 c49 -75 51 -90 10 -82 -24 5
-31 3 -38 -15 -7 -20 -10 -18 -29 20 -20 39 -20 44 -5 55 10 7 16 25 15 48 -1
20 1 36 3 36 3 0 22 -28 44 -62z m-1033 35 c-1 -10 0 -35 1 -56 2 -35 3 -37
24 -26 21 11 21 11 -2 -27 -35 -58 -43 -64 -35 -24 l7 35 -35 -37 c-40 -43
-62 -50 -51 -15 13 44 79 167 89 167 1 0 2 -8 2 -17z m758 -54 c4 -17 7 -45 7
-63 0 -38 -21 -120 -29 -113 -3 4 -1 19 4 34 5 15 6 48 2 73 -11 64 -10 100 0
100 5 0 12 -14 16 -31z m-122 -149 c-3 -17 -9 -30 -14 -30 -11 0 -12 61 -2 86
6 15 7 15 14 -5 5 -11 6 -35 2 -51z m267 55 c0 -8 -2 -15 -4 -15 -2 0 -6 7
-10 15 -3 8 -1 15 4 15 6 0 10 -7 10 -15z m-610 0 c0 -15 -42 -85 -50 -85 -11
0 1 35 22 69 12 19 28 28 28 16z m270 -52 c0 -33 -14 -51 -25 -33 -4 6 -4 29
0 52 8 47 25 34 25 -19z m334 -271 l14 -62 -35 -15 c-20 -9 -38 -13 -40 -11
-2 2 3 31 11 64 9 33 16 70 16 83 0 40 18 8 34 -59z m-469 -71 c8 -40 15 -77
15 -82 0 -5 -31 -9 -69 -9 l-69 0 38 78 c22 43 42 92 46 108 11 47 19 52 22
14 1 -19 9 -68 17 -109z m-2037 -37 c125 -64 288 -149 362 -189 74 -40 211
-111 303 -159 193 -100 269 -143 279 -160 12 -18 9 -60 -7 -82 -21 -31 -133
-81 -290 -129 -210 -64 -398 -122 -515 -160 -58 -19 -179 -56 -270 -84 -91
-27 -262 -79 -380 -116 -118 -37 -223 -70 -233 -73 -16 -4 -18 1 -15 43 l3 48
90 28 c50 15 225 68 390 118 165 50 347 107 405 125 58 19 206 64 330 101 124
37 274 82 334 101 60 19 115 34 123 34 7 0 13 7 13 16 0 11 -5 14 -17 9 -38
-15 -51 -19 -513 -155 -151 -45 -306 -92 -345 -105 -38 -12 -144 -46 -235 -73
-186 -57 -526 -160 -552 -168 -23 -7 -23 24 0 155 l17 95 70 13 c50 9 75 19
88 35 10 13 16 17 12 11 -8 -17 -5 -16 41 3 117 50 313 109 423 128 71 12 126
27 128 33 6 18 -83 103 -142 137 -27 16 -73 44 -102 62 -28 19 -54 34 -57 34
-10 0 -266 170 -266 176 0 13 114 235 124 242 6 3 31 9 56 13 108 15 108 15
348 -107z m1888 55 c-8 -30 -17 -66 -20 -81 -6 -25 -11 -28 -47 -28 l-42 0 27
33 c14 17 40 56 57 85 17 29 33 51 36 49 2 -3 -2 -29 -11 -58z m635 -82 c4
-38 3 -39 -46 -56 -28 -10 -59 -22 -70 -26 -18 -8 -18 -7 -7 8 8 9 22 19 33
22 10 4 19 11 19 17 0 6 -6 6 -15 -2 -12 -10 -15 -10 -15 3 0 12 90 81 96 74
1 -1 4 -19 5 -40z m63 -132 c-9 -33 -31 -105 -49 -160 -17 -55 -37 -122 -44
-150 -17 -69 -51 -118 -145 -205 -147 -137 -179 -170 -165 -170 8 0 25 14 38
31 20 25 26 28 33 15 5 -9 3 -31 -5 -54 -15 -43 -85 -172 -93 -172 -3 0 -4 39
-3 87 l2 88 -70 21 c-76 23 -173 73 -268 139 -83 56 -85 58 -85 45 0 -11 138
-104 207 -139 l43 -21 -50 -62 c-42 -53 -50 -68 -49 -102 l1 -41 10 35 c12 45
30 78 43 81 16 4 26 -89 19 -171 -6 -71 -48 -211 -66 -218 -11 -5 -10 -49 1
-56 11 -7 68 174 80 254 8 60 3 137 -14 200 -4 19 0 31 17 47 23 22 25 22 78
7 64 -18 90 -43 85 -82 -2 -15 -5 -73 -7 -129 -2 -63 -7 -102 -13 -100 -5 2
-23 30 -39 63 l-28 59 26 48 c40 70 17 57 -26 -16 -51 -86 -52 -90 -29 -136
27 -51 27 -54 -7 -93 -16 -18 -41 -51 -57 -73 -25 -37 -24 -36 19 10 88 94 88
94 65 144 -23 52 -24 74 -4 91 12 10 15 9 15 -4 0 -20 36 -94 58 -119 13 -15
14 -52 8 -295 -4 -152 -13 -334 -20 -404 -14 -133 -33 -185 -106 -293 -15 -22
-39 -62 -54 -90 l-28 -50 30 33 c16 18 54 77 83 130 38 69 55 91 58 77 3 -19
-14 -251 -25 -327 l-6 -38 -65 0 -65 0 -56 -55 c-31 -30 -58 -53 -60 -51 -11
11 -4 185 12 291 32 226 36 260 47 385 6 75 7 163 3 220 -8 91 -9 87 -15 -110
-3 -113 -11 -241 -17 -285 -39 -273 -49 -368 -47 -430 1 -38 0 -77 -2 -86 -4
-16 -119 -67 -128 -57 -3 3 4 117 14 254 11 137 25 326 31 419 7 94 23 269 36
390 l24 219 -27 39 c-15 21 -34 42 -44 47 -32 17 -28 40 22 141 28 56 48 103
45 106 -3 3 -29 -43 -57 -101 -65 -135 -84 -131 -50 8 34 144 29 163 -80 277
-49 52 -106 120 -125 151 -38 62 -87 195 -80 215 10 25 23 13 29 -24 9 -64
131 -254 227 -353 47 -48 100 -99 119 -114 27 -21 37 -40 51 -97 18 -69 34
-99 52 -99 5 0 0 12 -11 28 -10 15 -22 50 -26 77 -6 48 -11 54 -121 159 -109
104 -167 178 -223 287 -22 42 -23 47 -8 74 l15 29 13 -42 c19 -64 33 -52 26
23 -5 55 -4 65 9 65 9 0 26 -12 39 -27 13 -16 34 -39 45 -53 17 -19 15 -12 -8
30 -21 40 -36 56 -53 58 -57 6 -71 16 -143 97 -76 85 -76 85 -76 143 0 69 16
131 36 139 24 9 74 -18 80 -44 9 -34 -2 -40 -29 -15 -31 29 -43 28 -56 -8 -11
-32 2 -42 17 -14 5 10 14 14 21 9 9 -5 8 -12 -4 -25 -12 -14 -13 -20 -4 -26 7
-4 18 1 25 11 15 20 16 20 33 -12 15 -30 14 -35 -7 -29 -15 5 -22 -3 -36 -36
l-17 -43 31 -27 c37 -34 79 -46 92 -27 5 8 7 37 4 64 l-5 50 31 -55 c31 -54
134 -190 144 -190 3 0 2 10 -2 22 -11 36 -32 143 -29 146 2 2 20 -19 41 -47
20 -29 39 -50 41 -47 3 3 -2 26 -11 53 -8 26 -20 70 -26 97 -10 46 -9 50 25
102 36 53 37 54 85 54 l50 0 -6 -32 -6 -33 30 34 29 35 54 -16 c30 -9 69 -20
88 -25 51 -13 54 -35 3 -27 -22 3 -48 2 -57 -3 -13 -8 -2 -11 44 -16 34 -3 68
-10 75 -16 19 -16 25 -4 16 29 -7 25 -5 29 16 33 20 3 27 -2 41 -30 15 -32 15
-40 0 -102 -8 -36 -13 -68 -11 -70 7 -8 90 89 126 147 40 66 77 111 78 95 0
-7 -7 -38 -15 -69 -16 -63 -13 -79 11 -46 20 28 39 29 24 1 -10 -17 -7 -23 15
-41 30 -23 27 -35 -4 -18 -18 9 -21 8 -21 -10 0 -16 6 -20 30 -20 57 0 84 107
30 120 l-25 6 30 16 c18 9 40 12 55 8 21 -5 25 -12 24 -38 -2 -39 8 -41 31 -6
12 18 15 36 10 60 -3 19 0 53 7 76 l13 43 7 -55 c6 -40 3 -72 -8 -115z m-439
77 c-1 -1 -10 0 -19 4 -11 4 -16 18 -15 43 l0 36 18 -40 c10 -22 17 -41 16
-43z m-2610 -132 c70 -45 128 -81 280 -175 61 -37 118 -74 129 -84 17 -15 17
-16 -20 -22 -37 -6 -37 -6 14 -8 28 0 52 -3 52 -5 0 -2 3 -11 6 -19 4 -12 -5
-16 -43 -20 -65 -6 -264 -43 -336 -62 -31 -8 -85 -29 -118 -46 -34 -16 -63
-28 -66 -26 -6 7 82 67 99 68 7 0 8 3 2 5 -15 7 -97 -32 -119 -56 -14 -16 -16
-23 -7 -29 22 -13 -24 -49 -73 -57 -25 -3 -48 -4 -51 -2 -5 6 37 194 62 273
38 122 109 305 119 304 5 0 37 -18 70 -39z m1912 -32 c-1 -13 3 -34 7 -48 8
-24 8 -24 -15 -8 -25 16 -34 40 -25 64 9 23 34 17 33 -8z m37 -34 c3 -8 2 -12
-4 -9 -6 3 -10 10 -10 16 0 14 7 11 14 -7z m-157 -54 c-14 -36 -2 -85 48 -208
39 -96 95 -177 199 -286 73 -76 86 -96 67 -96 -18 0 -165 158 -211 227 -100
149 -165 393 -106 393 12 0 12 -6 3 -30z m29 -57 c-11 -11 -19 6 -11 24 8 17
8 17 12 0 3 -10 2 -21 -1 -24z m-649 -350 c-9 -9 -20 -13 -24 -9 -4 4 -1 11 7
16 25 16 35 11 17 -7z m-147 -48 c-14 -8 -34 -15 -45 -15 -16 0 -17 -2 -6 -9
10 -6 27 -5 49 5 55 23 51 17 -18 -29 -84 -55 -114 -104 -144 -237 l-23 -105
-39 -11 c-33 -10 -262 -83 -992 -314 -51 -17 -100 -30 -108 -30 -12 0 -14 20
-12 121 l3 121 44 17 c48 17 63 37 34 44 -13 3 -11 5 7 6 107 3 167 14 255 44
55 20 89 36 75 36 -14 1 -58 -13 -99 -29 -66 -27 -111 -32 -111 -11 0 10 60
44 67 37 4 -3 1 -6 -5 -6 -7 0 -12 -4 -12 -9 0 -4 11 -6 25 -3 24 4 36 22 15
22 -5 0 -10 4 -10 8 0 4 22 8 50 7 28 -1 44 2 37 7 -9 6 -8 8 3 8 9 0 21 -5
27 -11 9 -9 19 -7 40 6 20 13 50 20 101 21 41 2 76 5 79 7 2 3 -27 4 -66 4
-39 -1 -71 1 -71 6 0 4 18 7 41 7 24 0 38 4 34 10 -3 6 3 10 15 10 13 0 19 -4
14 -12 -4 -7 -3 -8 5 -4 6 4 9 12 5 17 -3 6 4 7 20 3 21 -5 33 0 59 26 30 31
31 32 7 25 -14 -4 -26 -11 -28 -15 -1 -4 -15 -5 -30 -3 -22 4 -24 2 -12 -7 12
-8 6 -9 -25 -5 -30 5 -36 4 -25 -4 12 -9 9 -11 -13 -11 -16 0 -26 -4 -22 -9 3
-6 -12 -10 -33 -9 -22 0 -50 -5 -63 -13 -13 -7 -26 -12 -29 -11 -11 3 -80 -22
-80 -28 0 -4 -15 -8 -32 -8 -61 -2 -68 -3 -63 -13 7 -11 -8 -17 -50 -23 -57
-7 -85 -18 -78 -30 4 -6 -1 -4 -11 4 -17 13 -7 18 120 58 77 24 236 74 354
112 200 63 392 120 407 120 21 0 -20 -20 -69 -34 -57 -16 -83 -33 -32 -20 19
5 25 4 20 -5 -4 -6 8 -3 27 8 22 12 39 16 48 10 18 -11 72 -1 81 16 4 7 25 16
45 20 46 8 75 23 68 34 -2 5 11 12 31 16 20 3 34 9 31 11 -3 3 -40 -4 -82 -16
-119 -33 -110 -18 11 19 60 18 127 39 149 46 53 18 66 18 35 0z m-1274 -394
c-4 -5 -1 -11 5 -13 7 -2 -4 -4 -24 -4 -43 0 -46 3 -14 16 29 12 39 12 33 1z
m104 -1 c-12 -8 -12 -10 -1 -10 8 0 12 -3 8 -6 -3 -3 -16 -2 -29 2 -22 7 -22
7 -3 15 28 11 43 10 25 -1z m-110 -65 c0 -8 -3 -15 -6 -15 -3 0 -12 7 -20 15
-14 13 -13 15 5 15 12 0 21 -6 21 -15z m2380 -131 c0 -20 -12 -44 -21 -44 -19
0 -32 46 -19 71 12 22 13 22 26 4 8 -10 14 -24 14 -31z m-1965 -761 c-7 -420
-9 -453 -25 -453 -26 0 -48 -31 -53 -75 -2 -22 -4 2 -5 54 -2 89 5 123 10 53
2 -32 12 -39 34 -24 8 5 13 181 18 581 4 316 10 579 14 585 12 18 14 -242 7
-721z m659 698 c3 -5 0 -13 -7 -18 -14 -11 -168 -73 -180 -73 -21 0 -158 -67
-207 -101 -59 -42 -99 -96 -124 -172 -21 -62 -21 -234 -1 -513 20 -280 29
-329 66 -371 16 -19 29 -41 29 -51 1 -9 9 -127 19 -262 10 -135 15 -270 12
-300 l-6 -55 -47 64 c-27 35 -48 69 -48 76 0 7 -4 57 -10 111 -9 89 -50 611
-81 1032 -17 236 -2 322 71 405 49 55 119 92 305 162 82 31 155 60 164 65 20
12 38 12 45 1z m-21 -66 c-12 -9 -64 -31 -115 -51 -193 -75 -262 -124 -307
-218 -12 -27 -25 -70 -28 -97 -6 -53 -16 -61 -33 -28 -21 39 17 143 75 208 43
47 109 83 251 136 54 20 110 43 124 51 35 19 60 18 33 -1z m-30 -74 c-3 -22 0
-68 6 -103 10 -51 9 -82 -3 -163 -18 -116 -44 -394 -54 -580 -8 -147 7 -126
-132 -188 -127 -57 -136 -60 -158 -48 -11 6 -23 23 -26 38 -3 16 -15 172 -27
347 -24 350 -21 403 26 495 42 82 90 120 237 182 73 31 134 57 135 58 0 1 -1
-17 -4 -38z m2212 -144 c74 -115 96 -161 90 -184 -4 -17 3 -31 24 -54 28 -29
29 -33 16 -58 -8 -14 -34 -48 -58 -75 l-43 -49 -92 49 c-110 58 -110 58 -57
207 19 54 42 127 51 162 9 36 19 65 23 65 3 0 24 -28 46 -63z m-2742 3 c-3
-11 -10 -23 -16 -27 -5 -3 -8 -2 -5 3 3 5 8 17 11 27 9 24 16 22 10 -3z m-43
-160 l-11 -25 6 25 c2 14 6 39 6 55 l2 30 4 -30 c2 -17 -1 -42 -7 -55z m1885
-20 c7 -23 -12 -63 -26 -55 -10 7 -12 58 -2 68 11 12 21 8 28 -13z m-1869
-198 c6 -126 6 -136 -10 -123 -14 11 -16 36 -15 165 1 181 14 160 25 -42z
m-269 51 c-3 -10 -5 -4 -5 12 0 17 2 24 5 18 2 -7 2 -21 0 -30z m111 -48 c-1
-25 -6 -45 -10 -45 -4 0 -8 3 -8 8 0 4 -12 16 -27 26 -16 9 -20 15 -10 12 25
-8 47 3 47 25 0 10 2 19 5 19 2 0 4 -20 3 -45z m-70 -35 c7 0 12 -4 12 -10 0
-5 -6 -10 -14 -10 -8 0 -16 -7 -20 -15 -4 -12 0 -14 22 -8 63 16 67 13 70 -52
6 -100 -10 -568 -18 -555 -5 7 -6 20 -2 28 3 10 1 13 -6 8 -7 -4 -10 1 -7 14
2 11 -1 20 -7 20 -6 0 -8 11 -3 28 6 26 6 26 -9 7 -14 -18 -15 -18 -10 -1 4
11 1 21 -7 26 -11 7 -10 10 4 16 9 3 17 14 16 23 0 11 -2 12 -6 3 -7 -18 -32
16 -33 45 0 25 35 50 45 33 8 -13 25 -3 25 14 0 13 -43 16 -56 4 -18 -18 -24
-4 -23 50 0 41 3 51 9 37 l9 -20 1 20 c1 11 4 14 7 8 8 -20 19 -15 32 13 10
23 9 26 -9 31 -23 6 -27 23 -5 23 17 0 20 16 4 25 -7 5 -4 14 8 27 18 21 18
21 -9 14 -18 -4 -28 -2 -28 5 0 6 9 13 20 16 28 7 25 21 -5 21 -22 0 -38 -21
-34 -44 1 -5 0 -18 -1 -29 -4 -28 -18 88 -19 159 -1 57 0 58 17 43 10 -10 24
-17 30 -17z m243 -153 c0 -12 6 -98 13 -192 7 -93 13 -171 12 -172 -1 -1 -19
9 -41 24 l-38 26 6 126 c4 69 7 150 7 179 0 50 1 52 20 42 11 -6 20 -21 21
-33z m4269 -52 c74 -42 187 -107 250 -145 63 -37 136 -80 163 -94 26 -15 47
-33 47 -41 0 -20 -9 -19 -50 7 -19 11 -105 62 -190 111 -85 50 -193 112 -240
140 -47 27 -97 49 -112 49 -14 0 -57 -14 -95 -30 -138 -61 -196 -81 -207 -75
-6 4 -20 6 -30 4 -14 -2 -17 2 -12 14 4 11 2 15 -6 13 -22 -8 -20 -28 4 -37
l23 -9 -27 -12 c-15 -7 -85 -36 -155 -64 -71 -28 -127 -55 -127 -61 1 -5 75
-56 165 -112 90 -55 265 -165 388 -243 255 -160 222 -153 378 -89 53 21 98 38
99 36 2 -2 -14 -27 -34 -57 -32 -46 -48 -59 -97 -78 -54 -22 -61 -23 -89 -9
-31 14 -460 281 -571 354 -33 22 -112 71 -175 108 -122 73 -160 101 -160 120
0 7 35 26 78 43 150 59 477 193 508 207 101 47 107 45 274 -50z m-160 -15
c-19 -13 -30 -13 -30 0 0 6 10 10 23 10 18 0 19 -2 7 -10z m-4361 -42 c1 -5
-3 -8 -9 -8 -5 0 -10 12 -9 28 0 24 1 25 9 7 5 -11 9 -23 9 -27z m2888 12 c79
-48 159 -164 170 -247 5 -36 3 -39 -28 -50 -18 -7 -33 -12 -34 -10 -1 1 -9 29
-19 62 -25 83 -60 149 -92 174 -32 25 -98 44 -131 38 -33 -6 -29 7 10 32 40
26 83 27 124 1z m1433 16 c0 -2 -15 -9 -32 -15 -30 -10 -31 -9 -14 4 18 14 46
20 46 11z m40 -6 c0 -5 -5 -10 -11 -10 -5 0 -7 5 -4 10 3 6 8 10 11 10 2 0 4
-4 4 -10z m-785 -41 c-4 -5 -14 -9 -24 -9 -9 0 -21 -3 -27 -7 -5 -5 2 2 15 14
24 21 48 22 36 2z m-1497 -22 c4 -21 -15 -47 -34 -47 -15 0 -20 51 -7 64 12
12 38 1 41 -17z m792 -26 c26 -18 75 -106 85 -152 5 -22 2 -28 -17 -33 -13 -4
-37 -26 -53 -49 -23 -32 -43 -46 -80 -59 l-50 -16 -27 26 c-15 14 -31 35 -34
46 -12 37 -94 154 -130 185 -33 29 -63 39 -77 25 -6 -6 38 -94 52 -104 7 -4
76 -105 95 -137 5 -9 2 -11 -8 -7 -8 3 -32 -4 -55 -15 -57 -30 -72 -26 -32 9
48 42 27 37 -26 -6 -40 -33 -113 -64 -150 -64 -26 0 -20 9 91 129 39 42 39 43
9 22 -18 -12 -58 -53 -89 -91 -57 -68 -98 -98 -109 -79 -7 10 18 94 42 144 9
17 36 52 62 79 25 27 39 45 30 40 -47 -27 -139 -160 -139 -202 0 -7 -6 -12
-12 -9 -15 5 -13 113 3 164 6 20 39 58 88 102 l78 70 159 3 c212 4 264 0 294
-21z m590 -15 c0 -2 -8 -10 -17 -17 -16 -13 -17 -12 -4 4 13 16 21 21 21 13z
m-932 -35 c3 -8 -1 -12 -9 -9 -7 2 -15 10 -17 17 -3 8 1 12 9 9 7 -2 15 -10
17 -17z m32 -36 c0 -8 -7 -15 -16 -15 -14 0 -14 3 -4 15 7 8 14 15 16 15 2 0
4 -7 4 -15z m1198 -90 c120 -74 212 -132 405 -254 188 -120 331 -208 379 -232
40 -21 70 -21 128 -3 22 7 24 6 11 -9 -7 -9 -31 -22 -52 -28 l-39 -12 -192
117 c-164 100 -461 286 -695 436 -39 25 -63 47 -62 58 0 10 3 12 6 5 2 -7 53
-42 111 -78z m-1540 27 c-39 -24 -38 -44 1 -23 15 8 16 5 13 -25 -5 -38 -7
-40 -26 -21 -27 26 -28 54 -4 71 12 9 27 16 33 16 5 0 -2 -8 -17 -18z m425
-66 c60 -84 66 -95 43 -77 -16 14 -91 114 -111 151 -21 36 27 -15 68 -74z
m-1928 66 c-6 -5 -38 -19 -72 -32 -34 -12 -68 -28 -74 -36 -16 -19 -5 -18 43
6 23 11 43 18 45 17 1 -2 -5 -13 -13 -26 -10 -14 -20 -19 -27 -13 -7 5 -22 4
-37 -4 -15 -8 -19 -14 -9 -14 8 0 21 6 28 13 11 10 13 9 8 -5 -5 -15 0 -18 27
-18 19 0 36 -6 39 -12 7 -21 19 -2 33 54 12 52 13 51 7 -42 -7 -121 5 -169 54
-209 20 -17 34 -34 30 -38 -4 -4 -60 29 -125 73 l-117 80 0 74 0 74 75 33 c75
33 103 41 85 25z m-487 -37 c33 -23 52 -43 52 -55 0 -13 -5 -18 -15 -14 -8 4
-15 11 -15 17 0 6 -3 8 -6 4 -3 -3 -24 7 -46 23 -22 17 -45 27 -50 24 -6 -4
-5 3 1 15 7 11 15 21 19 21 4 0 31 -16 60 -35z m1932 -5 c0 -20 8 -35 25 -46
14 -9 25 -23 25 -31 0 -12 -9 -14 -47 -8 -88 12 -183 37 -178 45 3 5 33 18 68
29 34 12 69 26 77 31 24 16 30 12 30 -20z m814 -26 c12 -31 -20 -46 -53 -25
-12 8 -12 12 -2 25 17 21 47 20 55 0z m-2789 -14 c3 -6 -1 -7 -9 -4 -18 7 -21
14 -7 14 6 0 13 -4 16 -10z m350 -247 c7 -131 11 -241 9 -245 -2 -4 -18 -14
-35 -22 -22 -11 -31 -12 -34 -3 -2 7 -9 91 -15 187 -5 96 -13 201 -16 233 l-6
57 31 6 c17 4 31 10 31 15 0 5 -8 6 -17 3 -15 -5 -15 -3 1 10 12 10 24 12 29
7 5 -5 15 -116 22 -248z m-366 213 c15 -18 10 -98 -6 -103 -7 -3 -12 16 -15
56 -3 63 1 71 21 47z m2751 -6 c0 -5 -2 -10 -4 -10 -3 0 -8 5 -11 10 -3 6 -1
10 4 10 6 0 11 -4 11 -10z m-2671 -42 l39 -22 12 -109 c6 -60 10 -110 8 -112
-2 -2 -21 11 -41 30 -21 19 -42 35 -48 35 -5 0 -9 15 -9 33 0 17 -3 62 -7 100
-3 37 -3 67 1 67 4 0 24 -10 45 -22z m1980 -55 c2 -1 -10 -14 -27 -27 -47 -41
-107 -203 -107 -293 0 -51 -1 -52 -25 -46 -48 11 -70 23 -70 35 0 7 11 57 24
110 25 99 56 158 119 225 31 33 33 33 86 -4z m-1552 -94 c65 -44 118 -87 117
-95 -3 -55 -5 -64 -15 -64 -6 0 -8 7 -5 16 8 20 0 27 -121 108 -83 55 -103 73
-103 92 0 13 2 24 5 24 2 0 57 -36 122 -81z m-52 -49 c3 -6 -10 0 -29 13 -19
12 -35 26 -36 30 0 9 56 -28 65 -43z m48 -74 c61 -42 84 -62 74 -67 -19 -11
-169 -60 -173 -57 -1 2 -6 48 -10 102 -6 83 -5 98 7 91 8 -5 54 -35 102 -69z
m544 -52 c-3 -3 -12 -4 -19 -1 -8 3 -5 6 6 6 11 1 17 -2 13 -5z m86 -14 c15 0
27 -4 27 -8 0 -10 -87 1 -98 13 -4 4 4 5 18 2 14 -4 37 -7 53 -7z m176 -36 c2
-2 -10 -4 -27 -4 -18 0 -32 5 -32 10 0 9 47 4 59 -6z m371 -15 c0 -6 -4 -7
-10 -4 -5 3 -10 11 -10 16 0 6 5 7 10 4 6 -3 10 -11 10 -16z m290 2 c0 -5 -7
-14 -15 -21 -13 -10 -15 -9 -15 9 0 12 6 21 15 21 8 0 15 -4 15 -9z m1715
-281 c-3 -5 -12 -10 -18 -10 -7 0 -6 4 3 10 19 12 23 12 15 0z m-415 -160 c-8
-5 -22 -9 -30 -9 -10 0 -8 3 5 9 27 12 43 12 25 0z m-743 -163 c8 -13 -74 46
-119 85 -18 16 0 5 40 -23 40 -29 76 -57 79 -62z m-1742 -32 c28 -19 64 -46
80 -60 l30 -26 -30 18 c-39 23 -215 152 -215 158 0 3 19 -9 43 -25 23 -17 65
-46 92 -65z m2925 -70 c0 -3 -11 -10 -25 -15 -16 -6 -23 -14 -19 -25 5 -12 -3
-15 -42 -16 -41 -1 -44 -2 -19 -8 l30 -6 -36 -23 c-20 -12 -41 -22 -46 -22 -6
0 -16 -7 -23 -15 -7 -8 -18 -15 -24 -14 -6 1 -20 1 -31 0 -17 -1 -18 -3 -5
-11 13 -9 13 -10 0 -10 -8 0 -28 -7 -45 -16 -19 -10 -52 -16 -90 -16 -66 1
-145 -15 -145 -30 0 -5 -4 -6 -10 -3 -5 3 -10 1 -10 -4 0 -6 7 -11 15 -11 8 0
15 -5 15 -11 0 -5 5 -7 10 -4 6 4 8 11 5 16 -4 5 -1 9 5 9 26 0 4 -35 -24 -38
-16 -2 -35 -10 -43 -18 -8 -8 -20 -14 -26 -14 -7 1 -5 6 4 13 13 10 9 12 -26
12 l-43 0 26 -17 26 -17 -30 -6 c-16 -4 -57 -15 -91 -26 -34 -10 -74 -19 -88
-19 -15 0 -34 -4 -43 -9 -9 -5 -39 -11 -67 -14 -27 -4 -43 -4 -35 0 8 3 43 19
78 35 41 18 72 26 90 23 21 -4 23 -4 7 3 -19 9 -19 9 5 17 31 9 284 111 326
131 17 9 37 17 45 18 8 2 48 19 91 39 109 51 229 100 245 100 7 0 13 4 13 8 0
4 10 10 23 12 12 2 23 5 25 6 1 0 2 -1 2 -4z m-2760 -45 c8 -5 11 -10 5 -10
-5 0 -21 10 -35 21 -24 20 -5 13 30 -11z m2339 -194 c-2 -2 -15 -9 -29 -15
-24 -11 -24 -11 -6 3 16 13 49 24 35 12z"/>
<path d="M2240 6056 c0 -9 30 -14 35 -6 4 6 -3 10 -14 10 -12 0 -21 -2 -21 -4z"/>
<path d="M2259 5983 c-2 -82 2 -128 12 -137 5 -6 9 28 9 87 0 58 -4 97 -10 97
-5 0 -10 -21 -11 -47z"/>
<path d="M2200 5940 c0 -5 5 -10 11 -10 5 0 7 5 4 10 -3 6 -8 10 -11 10 -2 0
-4 -4 -4 -10z"/>
<path d="M2260 5550 c0 -5 5 -10 10 -10 6 0 10 5 10 10 0 6 -4 10 -10 10 -5 0
-10 -4 -10 -10z"/>
<path d="M3925 2610 c-8 -13 15 -13 35 0 12 8 11 10 -7 10 -12 0 -25 -4 -28
-10z"/>
<path d="M5365 2474 c36 -28 61 -36 30 -10 -16 14 -34 26 -40 26 -5 -1 -1 -8
10 -16z"/>
<path d="M5490 2397 c0 -3 12 -12 26 -22 15 -9 23 -12 20 -6 -7 11 -46 35 -46
28z"/>
<path d="M5556 2345 c4 -8 11 -15 16 -15 6 0 5 6 -2 15 -7 8 -14 15 -16 15 -2
0 -1 -7 2 -15z"/>
<path d="M4530 2337 c25 -25 391 -279 396 -274 3 2 -8 12 -23 22 -29 18 -179
124 -293 205 -78 56 -103 71 -80 47z"/>
<path d="M5339 2311 c13 -12 28 -21 34 -21 12 0 11 0 -28 24 l-30 17 24 -20z"/>
<path d="M5428 2303 c7 -3 16 -2 19 1 4 3 -2 6 -13 5 -11 0 -14 -3 -6 -6z"/>
<path d="M5643 2273 c9 -2 25 -2 35 0 9 3 1 5 -18 5 -19 0 -27 -2 -17 -5z"/>
<path d="M5440 2239 c-49 -13 -151 -51 -148 -55 2 -1 53 13 113 31 98 30 124
48 35 24z"/>
<path d="M3475 2215 c11 -9 19 -22 17 -30 -1 -7 12 -23 30 -35 l33 -22 -27 26
c-16 14 -28 28 -28 31 0 4 152 -92 185 -118 76 -59 362 -257 371 -257 10 0
-97 78 -278 203 -35 24 -114 81 -177 126 -63 46 -121 85 -130 88 -11 3 -10 0
4 -12z"/>
<path d="M5233 2156 c-58 -33 -113 -76 -113 -88 0 -6 16 4 35 21 20 17 53 40
75 51 21 11 41 24 45 30 9 14 6 13 -42 -14z"/>
<path d="M2835 2147 c-121 -44 -154 -78 -126 -130 16 -30 72 -67 102 -67 30 1
160 55 171 72 13 21 9 67 -8 94 -14 21 -65 56 -76 53 -2 0 -30 -10 -63 -22z
m-48 -79 c16 -15 23 -33 23 -60 0 -46 -15 -49 -59 -12 -32 27 -40 61 -19 82
17 17 28 15 55 -10z m193 -4 c0 -22 -29 -45 -85 -68 -36 -14 -67 -26 -70 -26
-3 0 -5 13 -5 29 0 27 4 31 58 46 31 9 62 18 67 20 16 6 35 5 35 -1z"/>
<path d="M5205 2093 c-44 -29 -129 -112 -122 -120 8 -7 57 39 51 49 -3 4 1 8
8 8 7 0 26 13 41 29 15 17 36 33 47 36 11 4 20 11 20 16 0 12 2 12 -45 -18z"/>
<path d="M3180 2069 c-69 -20 -179 -80 -200 -108 -25 -36 -40 -120 -40 -233 0
-92 9 -116 58 -147 20 -13 56 -37 79 -53 23 -15 44 -28 47 -28 2 0 60 -38 128
-84 116 -79 333 -198 388 -211 19 -5 22 -4 10 4 -22 15 -6 13 41 -5 24 -10 36
-20 29 -24 -6 -4 9 -7 34 -6 24 1 42 3 40 5 -2 3 15 12 39 21 67 25 156 89
163 115 3 13 4 79 2 147 -3 139 -8 150 -95 217 -24 18 -55 45 -70 61 -116 115
-244 193 -442 271 -153 60 -179 68 -211 58z m220 -260 l35 -30 -51 31 c-29 17
-58 38 -65 47 -13 15 -11 15 16 -1 17 -9 46 -31 65 -47z m60 15 c43 -26 81
-55 83 -65 3 -11 3 -19 0 -19 -16 0 -156 100 -168 121 -11 17 7 9 85 -37z
m-165 26 c3 -6 -1 -7 -9 -4 -18 7 -21 14 -7 14 6 0 13 -4 16 -10z m415 -75
l25 -30 -27 24 c-16 14 -28 29 -28 34 0 6 1 8 3 6 1 -2 13 -17 27 -34z m-47
-56 c102 -58 161 -98 153 -106 -5 -5 -158 82 -236 134 -62 41 -12 24 83 -28z
m-134 -5 c14 -12 -19 -1 -35 12 -18 14 -18 14 6 3 14 -6 27 -13 29 -15z m256
-24 c10 -11 16 -20 13 -20 -3 0 -13 9 -23 20 -10 11 -16 20 -13 20 3 0 13 -9
23 -20z m0 -88 c-3 -3 -11 0 -18 7 -9 10 -8 11 6 5 10 -3 15 -9 12 -12z m55
-28 c0 -2 -9 0 -20 6 -11 6 -20 13 -20 16 0 2 9 0 20 -6 11 -6 20 -13 20 -16z
m60 -148 c-7 -7 -10 1 -9 25 0 32 1 33 10 10 6 -16 6 -28 -1 -35z"/>
<path d="M4195 2040 c-3 -6 1 -7 9 -4 18 7 21 14 7 14 -6 0 -13 -4 -16 -10z"/>
<path d="M4950 2047 c0 -3 12 -12 26 -22 15 -9 23 -12 20 -6 -7 11 -46 35 -46
28z"/>
<path d="M4125 1994 l-30 -26 33 22 c17 12 32 23 32 26 0 7 -4 5 -35 -22z"/>
<path d="M4430 1996 c0 -2 8 -10 18 -17 15 -13 16 -12 3 4 -13 16 -21 21 -21
13z"/>
<path d="M4933 1983 c46 -5 49 -20 5 -26 -29 -4 -28 -4 5 -3 20 1 37 -2 37 -5
0 -12 34 -3 38 11 7 20 -19 30 -73 28 -43 -1 -45 -2 -12 -5z"/>
<path d="M4483 1953 c9 -11 14 -23 10 -26 -3 -4 -1 -7 5 -7 20 0 13 24 -10 39
-22 13 -23 13 -5 -6z"/>
<path d="M4800 1930 c-9 -6 -10 -10 -3 -10 6 0 15 5 18 10 8 12 4 12 -15 0z"/>
<path d="M4875 1930 c3 -5 10 -10 16 -10 5 0 9 5 9 10 0 6 -7 10 -16 10 -8 0
-12 -4 -9 -10z"/>
<path d="M4610 1892 c-153 -79 -312 -181 -284 -182 6 0 19 9 29 20 10 11 21
20 26 20 4 0 36 18 72 40 36 22 108 62 159 90 109 58 107 68 -2 12z"/>
<path d="M4062 1904 c9 -10 32 -27 50 -37 l33 -18 -30 26 c-16 14 -39 31 -50
37 -19 10 -19 10 -3 -8z"/>
<path d="M4400 1870 c-9 -6 -10 -10 -3 -10 6 0 15 5 18 10 8 12 4 12 -15 0z"/>
<path d="M4295 1800 c-3 -5 -2 -10 4 -10 5 0 13 5 16 10 3 6 2 10 -4 10 -5 0
-13 -4 -16 -10z"/>
<path d="M4044 1781 c7 -11 46 -35 46 -28 0 3 -12 12 -26 22 -15 9 -23 12 -20
6z"/>
<path d="M4110 1769 c27 -25 70 -52 70 -45 0 3 -21 19 -47 37 -34 22 -41 25
-23 8z"/>
<path d="M4130 1720 c0 -14 65 -60 83 -60 10 0 16 -3 16 -7 -1 -5 -1 -16 0
-26 1 -15 4 -16 24 -5 19 10 20 13 5 16 -20 4 -23 13 -8 28 6 6 -3 16 -23 27
-18 10 -26 13 -19 6 37 -38 -6 -38 -47 0 -17 16 -31 25 -31 21z"/>
<path d="M4358 1703 c-9 -2 -19 -11 -22 -19 -4 -12 -2 -12 14 -4 15 8 40 33
28 29 -2 -1 -10 -3 -20 -6z"/>
<path d="M3998 1173 c18 -2 45 -2 60 0 15 2 0 4 -33 4 -33 0 -45 -2 -27 -4z"/>
<path d="M3763 5276 c-67 -13 -133 -44 -133 -62 0 -13 33 -44 47 -44 6 0 9 9
6 20 -6 23 32 43 101 53 l39 6 -22 -23 c-26 -27 -27 -43 -3 -49 13 -3 11 -6
-12 -16 -23 -9 -26 -14 -16 -26 16 -19 60 -19 87 0 26 18 41 79 24 99 -10 11
-3 13 36 8 l48 -5 -24 27 c-28 30 -71 33 -178 12z m77 -126 c0 -5 -10 -10 -22
-9 -22 0 -22 1 -3 9 11 5 21 9 23 9 1 1 2 -3 2 -9z"/>
<path d="M4200 5089 c0 -14 7 -34 15 -45 18 -24 18 -19 0 31 -12 33 -14 36
-15 14z"/>
<path d="M4199 4963 c-13 -16 -12 -17 4 -4 16 13 21 21 13 21 -2 0 -10 -8 -17
-17z"/>
<path d="M3483 4753 c6 -21 17 -47 25 -58 l14 -20 -6 20 c-4 11 -13 37 -19 58
-7 20 -15 37 -18 37 -4 0 -2 -17 4 -37z"/>
<path d="M3994 4774 c-10 -8 -13 -12 -6 -9 8 4 26 11 40 15 22 7 23 8 6 9 -11
1 -29 -6 -40 -15z"/>
<path d="M3742 4290 c0 -19 4 -48 8 -65 l8 -30 0 35 c0 19 -4 49 -8 65 l-8 30
0 -35z"/>
<path d="M3641 4245 c0 -13 38 -59 44 -54 2 3 -7 18 -20 34 -13 17 -24 26 -24
20z"/>
<path d="M3751 4064 c-18 -49 -10 -51 11 -3 9 21 13 39 9 39 -4 0 -13 -16 -20
-36z"/>
<path d="M3780 4005 c-7 -9 -11 -17 -9 -20 3 -2 10 5 17 15 14 24 10 26 -8 5z"/>
<path d="M3814 3996 c4 -11 -1 -27 -11 -38 -15 -16 -15 -18 -1 -13 22 9 30 33
17 53 -9 15 -10 15 -5 -2z"/>
<path d="M3767 3523 c-4 -3 -7 -13 -7 -22 1 -13 3 -13 11 2 11 19 8 33 -4 20z"/>
<path d="M3796 3484 c-3 -9 -12 -14 -21 -10 -8 3 -15 1 -15 -4 0 -17 37 -11
44 6 4 9 5 19 2 21 -2 2 -6 -4 -10 -13z"/>
<path d="M3701 3091 c-16 -28 13 -51 36 -28 18 18 11 47 -11 47 -9 0 -20 -9
-25 -19z m29 -11 c0 -5 -4 -10 -10 -10 -5 0 -10 5 -10 10 0 6 5 10 10 10 6 0
10 -4 10 -10z"/>
<path d="M1575 4949 c-33 -5 -64 -11 -70 -14 -12 -5 91 4 155 15 40 7 41 8 10
8 -19 0 -62 -4 -95 -9z"/>
<path d="M1468 4923 c7 -3 16 -2 19 1 4 3 -2 6 -13 5 -11 0 -14 -3 -6 -6z"/>
<path d="M1394 4906 c-47 -21 -126 -81 -152 -115 -12 -17 -29 -31 -37 -31 -8
0 -15 -4 -15 -10 0 -20 38 -9 54 15 34 52 86 96 148 125 61 29 63 42 2 16z"/>
<path d="M2235 4560 c-3 -5 -16 -10 -28 -10 -12 0 -35 -9 -51 -19 -17 -11 -33
-18 -38 -15 -4 3 -8 0 -8 -5 0 -6 -10 -11 -22 -11 -16 0 -19 -3 -11 -11 8 -8
20 -7 44 5 19 8 61 22 93 31 65 16 81 25 47 25 -12 0 -19 4 -16 10 3 6 4 10 1
10 -3 0 -8 -4 -11 -10z"/>
<path d="M1835 4440 c4 -6 11 -8 16 -5 14 9 11 15 -7 15 -8 0 -12 -5 -9 -10z"/>
<path d="M1796 4432 c-4 -7 -4 -16 -1 -22 3 -5 -2 -10 -12 -10 -10 0 -25 -5
-33 -10 -11 -8 -7 -9 15 -4 45 10 53 17 45 38 -4 14 -9 16 -14 8z"/>
<path d="M1625 4350 c-19 -8 -19 -9 2 -9 12 -1 25 4 28 9 7 12 -2 12 -30 0z"/>
<path d="M1565 4330 c-19 -8 -19 -9 2 -9 12 -1 25 4 28 9 7 12 -2 12 -30 0z"/>
<path d="M1220 4220 c-13 -8 -13 -10 2 -10 9 0 20 5 23 10 8 13 -5 13 -25 0z"/>
<path d="M1962 3693 c-15 -30 1 -68 27 -68 33 0 48 27 33 59 -13 30 -47 35
-60 9z m45 -19 c8 -21 -13 -42 -28 -27 -13 13 -5 43 11 43 6 0 13 -7 17 -16z"/>
<path d="M1972 3058 c-23 -23 -12 -74 18 -78 36 -5 41 0 38 43 -2 33 -7 43
-23 45 -11 1 -26 -3 -33 -10z m38 -28 c0 -30 -13 -40 -25 -20 -8 13 4 50 16
50 5 0 9 -13 9 -30z"/>
<path d="M1451 3214 c0 -11 3 -14 6 -6 3 7 2 16 -1 19 -3 4 -6 -2 -5 -13z"/>
<path d="M1451 3164 c0 -11 3 -14 6 -6 3 7 2 16 -1 19 -3 4 -6 -2 -5 -13z"/>
<path d="M1435 3049 c-4 -5 -4 -13 -1 -16 3 -4 6 0 6 8 0 11 2 11 10 -1 6 -9
10 -10 10 -3 0 17 -17 25 -25 12z"/>
<path d="M1610 3155 c0 -15 4 -24 10 -20 6 3 10 12 10 20 0 8 -4 17 -10 20 -6
4 -10 -5 -10 -20z"/>
<path d="M2080 2576 c0 -2 7 -6 15 -10 8 -3 15 -1 15 4 0 6 -7 10 -15 10 -8 0
-15 -2 -15 -4z"/>
<path d="M5058 1493 c7 -3 16 -2 19 1 4 3 -2 6 -13 5 -11 0 -14 -3 -6 -6z"/>
<path d="M7613 5703 c-10 -4 -13 -88 -13 -374 l0 -369 95 0 95 0 0 300 0 301
133 -3 132 -3 0 -295 0 -295 93 -3 92 -3 0 371 c0 203 -3 370 -7 370 -5 0
-143 2 -308 4 -165 2 -306 1 -312 -1z"/>
<path d="M13541 5698 c-65 -17 -116 -70 -130 -136 -13 -61 -14 -396 -2 -461
10 -48 33 -84 75 -115 24 -19 45 -21 174 -24 81 -2 189 -1 240 3 l92 7 0 75 0
75 -42 -6 c-24 -3 -104 -8 -178 -12 -189 -9 -180 -20 -180 224 0 103 4 192 8
198 19 28 56 34 221 34 l169 0 4 70 3 70 -101 0 c-55 0 -148 2 -205 4 -60 3
-123 0 -148 -6z"/>
<path d="M17641 5694 c-56 -17 -106 -65 -120 -117 -7 -24 -13 -136 -14 -262
-2 -218 -2 -220 23 -264 47 -82 56 -86 263 -89 100 -1 209 1 242 5 l60 8 3 73
3 74 -63 -6 c-35 -3 -115 -8 -178 -12 -167 -8 -159 -20 -161 225 -2 250 -20
231 223 231 l179 0 -3 72 -3 72 -205 2 c-146 1 -218 -2 -249 -12z"/>
<path d="M8445 5525 c-89 -31 -108 -87 -103 -299 3 -175 14 -209 77 -244 34
-19 54 -22 168 -22 72 0 164 3 206 6 l75 7 4 68 3 68 -75 -7 c-41 -4 -115 -7
-165 -7 -87 0 -90 1 -102 27 -7 14 -10 33 -7 43 6 14 27 16 188 14 l181 -2 3
89 c6 165 -34 246 -130 265 -71 14 -278 10 -323 -6z m250 -131 c10 -11 15 -29
13 -53 l-3 -36 -87 -3 c-66 -2 -88 0 -89 10 -3 32 4 74 13 86 16 19 133 16
153 -4z"/>
<path d="M9270 5531 c-14 -5 -44 -18 -67 -29 l-42 -22 -3 23 c-3 20 -9 22 -85
25 l-83 3 0 -376 0 -376 91 3 91 3 1 90 2 90 142 0 c160 0 178 6 220 81 21 36
23 52 23 202 0 174 -7 208 -51 249 -40 36 -170 55 -239 34z m90 -161 c17 -17
20 -33 20 -116 0 -52 -5 -104 -11 -115 -16 -30 -53 -40 -130 -33 l-70 7 3 121
3 121 35 17 c49 25 124 24 150 -2z"/>
<path d="M11925 5534 c-55 -14 -84 -36 -105 -79 -20 -41 -21 -57 -18 -222 3
-178 3 -178 31 -215 16 -20 44 -42 63 -48 19 -7 106 -12 197 -13 155 -1 164 0
206 23 76 43 82 66 79 275 -3 170 -4 182 -26 213 -42 59 -69 66 -247 69 -88 1
-169 -1 -180 -3z m251 -148 c16 -13 19 -29 22 -129 5 -155 4 -157 -100 -157
-116 0 -118 3 -118 148 0 146 4 152 105 152 46 0 78 -5 91 -14z"/>
<path d="M14722 5531 c-44 -12 -90 -56 -102 -100 -5 -20 -10 -106 -10 -192 0
-194 12 -229 88 -268 25 -13 257 -15 372 -3 l65 7 3 69 3 69 -30 -6 c-16 -4
-87 -9 -158 -13 -115 -6 -131 -5 -146 11 -11 10 -17 29 -15 44 l3 26 180 1
180 2 0 123 c0 113 -2 127 -23 162 -39 61 -67 70 -232 73 -80 2 -160 -1 -178
-5z m229 -131 c14 -8 19 -21 19 -56 l0 -45 -87 3 -88 3 -3 33 c-5 51 19 72 85
72 30 0 63 -5 74 -10z"/>
<path d="M16050 5529 c-47 -5 -91 -11 -97 -14 -9 -3 -13 -27 -13 -71 0 -64 1
-66 23 -60 12 3 77 9 144 13 135 7 153 1 153 -47 l0 -28 -132 -4 c-149 -4
-185 -16 -218 -71 -30 -48 -28 -172 3 -217 38 -57 80 -75 173 -73 65 1 91 6
132 27 l51 26 3 -23 c3 -21 8 -22 87 -22 l83 0 -1 228 c-2 262 -6 277 -74 322
-34 22 -184 29 -317 14z m210 -370 c0 -25 -6 -32 -36 -45 -21 -9 -57 -14 -87
-12 -47 3 -53 6 -62 31 -15 43 11 57 107 57 l78 0 0 -31z"/>
<path d="M18267 5526 c-52 -19 -85 -52 -97 -95 -5 -20 -10 -108 -10 -196 0
-149 2 -163 23 -198 42 -69 65 -77 212 -77 72 0 167 3 213 7 l82 6 0 70 0 70
-31 -7 c-58 -11 -284 -18 -297 -8 -8 5 -14 25 -15 43 l-2 34 184 3 183 2 -3
123 c-4 107 -7 127 -27 160 -39 62 -67 71 -232 74 -107 2 -155 -1 -183 -11z
m242 -130 c6 -7 12 -31 14 -52 l2 -39 -90 0 -90 0 -3 32 c-5 50 25 73 97 73
37 0 63 -5 70 -14z"/>
<path d="M19088 5530 c-20 -5 -51 -18 -69 -29 -36 -22 -49 -20 -49 10 0 17 -8
19 -85 19 l-85 0 0 -375 0 -375 95 0 95 0 0 94 0 93 133 -1 c150 -1 171 5 221
67 l31 39 0 176 c0 198 -8 227 -73 265 -37 22 -157 31 -214 17z m85 -154 c14
-11 17 -30 17 -128 0 -85 -4 -119 -13 -127 -22 -18 -72 -24 -132 -16 l-55 6 0
125 0 124 33 14 c41 18 127 19 150 2z"/>
<path d="M20095 5531 c-49 -12 -72 -29 -97 -68 -21 -35 -23 -50 -26 -203 -4
-201 9 -244 85 -283 35 -19 179 -23 351 -11 l92 7 0 70 0 70 -29 -6 c-16 -4
-88 -9 -159 -13 l-130 -7 -17 26 c-10 16 -14 34 -10 47 6 19 14 20 186 20
l181 0 -4 129 c-3 144 -12 166 -79 206 -29 17 -54 20 -174 22 -77 1 -153 -2
-170 -6z m230 -145 c9 -14 15 -37 13 -53 l-3 -28 -90 0 -90 0 -3 28 c-2 16 4
39 13 53 14 21 23 24 80 24 57 0 66 -3 80 -24z"/>
<path d="M20717 5529 c-50 -15 -93 -56 -106 -105 -14 -52 -14 -312 0 -355 14
-40 44 -76 81 -95 30 -15 207 -19 356 -7 l82 6 0 70 0 70 -31 -7 c-16 -3 -87
-9 -156 -12 -115 -7 -127 -6 -139 11 -8 10 -14 32 -14 47 l0 29 180 -3 c114
-2 181 1 183 7 1 6 0 64 -3 130 -4 105 -8 124 -28 153 -41 57 -71 66 -227 69
-77 1 -157 -3 -178 -8z m235 -136 c11 -10 18 -30 18 -55 l0 -38 -90 0 -90 0 0
45 c0 54 14 64 89 65 37 0 60 -5 73 -17z"/>
<path d="M9652 5248 l3 -283 90 0 90 0 5 140 5 140 27 -50 c14 -27 37 -69 50
-92 l23 -43 72 0 72 0 50 93 50 92 3 -140 3 -140 90 0 90 0 3 283 2 282 -102
0 -103 0 -79 -145 c-69 -128 -80 -144 -90 -128 -11 16 -96 172 -133 246 -14
27 -15 27 -119 27 l-104 0 2 -282z"/>
<path d="M10482 5248 l3 -283 95 0 94 0 21 32 c11 18 52 87 90 153 l70 119 3
-154 3 -155 89 0 90 0 0 285 0 286 -96 -3 -97 -3 -46 -75 c-26 -41 -64 -105
-84 -142 -21 -38 -42 -68 -47 -68 -4 0 -6 65 -3 145 l6 145 -97 0 -96 0 2
-282z"/>
<path d="M11150 5255 c0 -151 -1 -278 -2 -282 -2 -5 39 -9 90 -11 l92 -3 0
111 0 110 95 0 95 0 0 -110 0 -110 95 0 95 0 0 285 0 285 -95 0 -95 0 0 -105
0 -105 -95 0 -95 0 0 105 0 105 -90 0 -90 0 0 -275z"/>
<path d="M12476 5247 l2 -282 223 0 c207 0 227 2 259 20 92 54 94 206 2 261
l-30 17 29 24 c55 47 58 153 5 201 -39 36 -83 42 -290 42 l-201 0 1 -283z
m342 141 c18 -18 14 -56 -7 -68 -11 -5 -49 -10 -85 -10 l-66 0 0 45 0 45 73 0
c43 0 78 -5 85 -12z m2 -207 c18 -5 26 -15 28 -35 6 -47 -11 -56 -104 -56
l-84 0 0 43 c0 24 3 47 7 50 8 9 120 7 153 -2z"/>
<path d="M14020 5460 l0 -70 90 0 90 0 0 -215 0 -215 90 0 90 0 0 215 0 215
85 0 85 0 0 70 0 70 -265 0 -265 0 0 -70z"/>
<path d="M15257 5248 l2 -283 90 -3 91 -3 0 216 0 216 93 -3 92 -3 3 -212 2
-213 90 0 90 0 0 285 0 285 -278 0 -277 0 2 -282z"/>
<path d="M16542 5248 l3 -283 90 0 90 0 0 108 0 107 98 0 97 0 0 -110 0 -110
90 0 90 0 0 285 0 286 -91 -3 -91 -3 -2 -100 -1 -100 -94 0 -95 0 0 100 -1
100 -93 3 -92 3 2 -283z"/>
<path d="M19470 5245 l0 -285 90 0 90 0 0 215 0 214 137 3 136 3 3 25 c2 14 1
44 -2 68 l-5 42 -225 0 -224 0 0 -285z"/>
<path d="M21250 5245 l0 -285 173 1 c188 0 228 8 260 50 28 38 33 110 13 164
-15 39 -27 52 -84 91 -2 1 11 15 28 32 26 26 30 38 30 84 0 35 -7 64 -20 85
-34 56 -60 63 -240 63 l-160 0 0 -285z m335 110 l0 -40 -77 -3 -78 -3 0 46 0
46 78 -3 77 -3 0 -40z m3 -217 l-3 -43 -77 -3 -78 -3 0 46 0 45 81 0 80 0 -3
-42z"/>
<path d="M21772 5248 l3 -283 94 0 94 0 39 64 c21 35 59 101 84 147 25 46 50
82 55 78 5 -3 9 -70 9 -150 l0 -144 90 0 90 0 0 285 0 285 -95 0 -95 0 -87
-150 c-49 -82 -92 -149 -97 -150 -5 0 -7 52 -3 123 3 67 3 134 0 150 l-5 27
-89 0 -89 0 2 -282z"/>
<path d="M22422 5381 c3 -163 8 -178 72 -225 25 -19 42 -21 161 -21 l134 0 3
-85 3 -85 88 -3 87 -3 0 286 0 285 -90 0 -90 0 0 -124 c0 -141 3 -136 -86
-136 -93 0 -94 2 -94 140 l0 120 -96 0 -95 0 3 -149z"/>
<path d="M7500 3980 l0 -60 7759 0 7758 0 7 46 c3 26 6 53 6 60 0 12 -1224 14
-7765 14 l-7765 0 0 -60z"/>
<path d="M11210 3028 c-91 -46 -115 -115 -115 -328 0 -140 2 -160 23 -205 43
-93 91 -125 187 -125 83 0 131 28 160 93 13 29 27 76 31 105 l7 52 -41 0 -40
0 -7 -56 c-9 -78 -50 -124 -110 -124 -89 0 -125 64 -133 236 -7 167 23 267 88
294 66 27 140 -18 154 -94 6 -33 10 -36 41 -36 33 0 35 2 35 34 0 136 -151
219 -280 154z"/>
<path d="M10577 3034 c-4 -4 -7 -153 -7 -331 l0 -323 53 0 52 0 100 238 c54
130 107 255 117 277 l17 40 -2 -50 c-1 -27 0 -152 1 -277 l2 -228 35 0 35 0
-2 328 -3 327 -46 3 -46 3 -86 -198 c-47 -109 -98 -228 -112 -265 -15 -38 -30
-68 -34 -68 -3 0 -6 118 -6 262 l0 263 -30 3 c-17 2 -34 0 -38 -4z"/>
<path d="M11557 3033 c-4 -3 -7 -19 -7 -35 l0 -28 85 0 85 0 0 -295 0 -295 35
0 35 0 1 53 c1 28 3 160 4 292 l3 240 81 3 81 3 0 34 0 35 -198 0 c-109 0
-202 -3 -205 -7z"/>
<path d="M12355 3026 c-53 -23 -95 -92 -95 -156 0 -28 2 -30 40 -30 39 0 40 1
40 34 0 52 41 96 89 96 59 0 91 -35 91 -100 0 -28 -5 -60 -11 -72 -12 -23 -66
-48 -104 -48 -21 0 -25 -5 -25 -29 0 -28 3 -30 48 -37 69 -10 112 -56 112
-118 0 -53 -20 -100 -49 -116 -11 -5 -38 -10 -61 -10 -52 0 -87 32 -96 89 -6
40 -7 41 -47 41 l-40 0 7 -47 c14 -101 62 -144 168 -150 63 -3 79 -1 112 19
105 61 116 246 19 313 -34 23 -35 23 -13 35 58 31 79 143 40 219 -34 69 -146
102 -225 67z"/>
<path d="M12795 3026 c-16 -7 -38 -22 -47 -33 -21 -23 -48 -96 -48 -129 0 -21
5 -24 39 -24 40 0 51 13 51 67 0 30 46 63 87 63 101 0 124 -165 29 -205 -20
-8 -44 -15 -55 -15 -12 0 -20 -9 -24 -26 -3 -20 1 -27 20 -35 13 -5 31 -9 39
-9 30 0 71 -30 84 -60 7 -18 10 -51 8 -82 -7 -67 -39 -98 -102 -98 -56 0 -91
31 -101 88 -7 41 -8 42 -47 42 l-40 0 7 -42 c18 -111 60 -149 169 -155 60 -3
77 -1 110 19 105 61 118 250 21 312 l-30 20 33 31 c54 49 62 152 18 221 -36
54 -152 81 -221 50z"/>
<path d="M7610 2858 c-65 -45 -96 -156 -81 -293 15 -133 57 -183 157 -191 101
-9 157 40 166 141 3 36 1 40 -22 41 -37 2 -50 -6 -50 -30 0 -32 -36 -85 -63
-91 -38 -10 -76 11 -94 52 -23 57 -22 229 3 280 32 65 103 71 137 12 9 -17 17
-37 17 -45 0 -10 12 -14 40 -14 39 0 40 1 34 28 -22 94 -67 132 -155 132 -42
0 -65 -6 -89 -22z"/>
<path d="M9215 2865 c-62 -31 -95 -117 -95 -247 0 -160 63 -248 178 -248 84 0
137 51 150 142 l5 39 -39 -3 c-35 -3 -39 -6 -45 -38 -8 -35 -49 -80 -74 -80
-53 0 -84 42 -92 127 l-6 52 124 3 124 3 0 70 c0 83 -28 151 -74 178 -36 21
-115 22 -156 2z m108 -54 c28 -11 37 -28 47 -88 l7 -43 -89 0 c-88 0 -88 0
-88 25 0 36 25 91 47 104 23 13 45 14 76 2z"/>
<path d="M7900 2840 l0 -30 65 0 65 0 0 -215 0 -215 35 0 35 0 0 215 0 215 64
0 c63 0 64 0 68 30 l5 30 -169 0 -168 0 0 -30z"/>
<path d="M8280 2813 c121 -371 141 -445 130 -473 -20 -48 -47 -70 -89 -70 -36
0 -37 -1 -33 -30 5 -34 28 -45 77 -36 56 11 90 61 131 193 20 65 60 196 90
291 30 95 54 175 54 177 0 3 -17 5 -37 5 l-38 0 -54 -190 c-30 -104 -57 -187
-60 -184 -3 3 -29 87 -57 187 l-52 182 -40 3 -41 3 19 -58z"/>
<path d="M8740 2768 c-1 -187 -35 -328 -81 -328 -17 0 -19 -8 -19 -95 l0 -95
35 0 35 0 0 65 0 65 145 0 145 0 0 -66 0 -65 33 3 32 3 3 93 3 92 -26 0 -25 0
0 215 0 215 -140 0 -140 0 0 -102z m200 -143 l0 -185 -85 0 c-95 0 -95 0 -69
71 9 26 18 96 21 172 l6 127 64 0 63 0 0 -185z"/>
<path d="M9550 2625 l0 -245 41 0 41 0 -3 113 -3 112 87 3 87 3 0 -116 0 -115
35 0 35 0 0 245 0 245 -35 0 -35 0 0 -100 0 -100 -90 0 -90 0 0 100 0 100 -35
0 -35 0 0 -245z"/>
<path d="M9940 2840 c0 -29 0 -29 68 -32 l67 -3 3 -212 2 -213 35 0 35 0 0
215 0 215 65 0 65 0 0 30 0 30 -170 0 -170 0 0 -30z"/>
<path d="M11960 2645 l0 -35 110 0 110 0 0 35 0 35 -110 0 -110 0 0 -35z"/>
</g>
</svg>
